<svg width="30" height="30" viewBox="0 0 30 30" fill="none" xmlns="http://www.w3.org/2000/svg">
<g clip-path="url(#clip0_1190_31)">
<rect x="10" y="10" width="20" height="20" rx="3" fill="#512BD4"/>
<path d="M26.7108 18.1939H25.3308V22.424H24.534V18.1939H23.1574V17.5006H26.7108V18.1939ZM22.8795 22.424H20.1838V17.5006H22.7727V18.1939H20.9806V19.5885H22.6318V20.2785H20.9806V21.7345H22.8795V22.424ZM19.1286 22.424H18.2575L15.9638 18.8051C15.9064 18.715 15.8581 18.6195 15.8195 18.5199H15.7994C15.8173 18.6256 15.8262 18.8509 15.8262 19.1965V22.424H15.0563V17.5006H15.9839L18.201 21.0344C18.2944 21.1804 18.3548 21.2816 18.3816 21.3364H18.395C18.3727 21.2061 18.3615 20.9847 18.3615 20.6738V17.5H19.1286V22.424ZM14.2623 22.0365C14.2623 22.0974 14.2497 22.1577 14.2253 22.214C14.2009 22.2702 14.165 22.3214 14.1199 22.3644C14.0748 22.4075 14.0212 22.4416 13.9623 22.4649C13.9033 22.4881 13.8402 22.5001 13.7764 22.5C13.7126 22.5 13.6494 22.488 13.5905 22.4647C13.5316 22.4413 13.478 22.4071 13.433 22.364C13.3879 22.3209 13.3521 22.2698 13.3278 22.2135C13.3034 22.1572 13.2909 22.0968 13.291 22.0359C13.2912 21.9131 13.3424 21.7953 13.4334 21.7085C13.5244 21.6217 13.6477 21.5729 13.7764 21.5729C13.8402 21.5728 13.9033 21.5848 13.9623 21.608C14.0212 21.6313 14.0748 21.6654 14.1199 21.7085C14.165 21.7515 14.2009 21.8027 14.2253 21.8589C14.2497 21.9152 14.2623 21.9755 14.2623 22.0365Z" fill="white"/>
<g clip-path="url(#clip1_1190_31)">
<rect width="20" height="20" rx="3" fill="#239120"/>
<rect x="3" y="5" width="14" height="10" fill="white"/>
<path d="M10 0C7.34784 0 4.8043 1.05357 2.92893 2.92893C1.05357 4.8043 0 7.34784 0 10C0 12.6522 1.05357 15.1957 2.92893 17.0711C4.8043 18.9464 7.34784 20 10 20C12.6522 20 15.1957 18.9464 17.0711 17.0711C18.9464 15.1957 20 12.6522 20 10C20 7.34784 18.9464 4.8043 17.0711 2.92893C15.1957 1.05357 12.6522 0 10 0ZM7.855 5.93333C8.42112 5.93676 8.98181 6.04409 9.50917 6.25V7.23417C8.93614 6.91576 8.28965 6.75313 7.63417 6.7625C7.22606 6.74893 6.81977 6.82273 6.4425 6.97896C6.06523 7.13518 5.72571 7.37022 5.44667 7.66833C4.86173 8.3354 4.55928 9.20389 4.60333 10.09C4.55972 10.928 4.84191 11.7503 5.39083 12.385C5.65386 12.6677 5.97485 12.8902 6.33183 13.0373C6.6888 13.1844 7.07335 13.2527 7.45917 13.2375C8.17938 13.2554 8.89036 13.0725 9.5125 12.7092L9.50917 13.6092C8.82888 13.9401 8.07771 14.099 7.32167 14.0717C6.82217 14.0935 6.32376 14.0084 5.85984 13.822C5.39591 13.6356 4.97717 13.3522 4.63167 12.9908C3.9368 12.2122 3.57428 11.1925 3.62167 10.15C3.59754 9.59099 3.68577 9.03282 3.88116 8.50851C4.07654 7.9842 4.3751 7.5044 4.75917 7.0975C5.13435 6.71347 5.58554 6.41194 6.08388 6.2122C6.58223 6.01246 7.11677 5.9189 7.65333 5.9375C7.68665 5.93603 7.71999 5.93492 7.75333 5.93417C7.78722 5.93379 7.82111 5.93296 7.855 5.93333ZM12.7408 6.0625H13.4375L12.975 8.2725H14.3592L14.8317 6.0625H15.5067L15.0442 8.2725L16.4875 8.26917L16.3625 8.85H14.925L14.5817 10.5H16.125L15.9783 11.0817H14.465L13.9817 13.2692H13.29L13.7625 11.0817H12.3875L11.925 13.2692H11.25L11.7125 11.0817H10.2625L10.3717 10.5H11.8283L12.1625 8.85333H10.6408L10.7558 8.2725H12.2775L12.7408 6.0625ZM12.8592 8.85L12.5 10.5H13.8942L14.2467 8.85H12.8592Z" fill="#239120"/>
</g>
</g>
<defs>
<clipPath id="clip0_1190_31">
<rect width="30" height="30" fill="white"/>
</clipPath>
<clipPath id="clip1_1190_31">
<rect width="20" height="20" rx="3" fill="white"/>
</clipPath>
</defs>
</svg>
