<svg width="30" height="30" viewBox="0 0 30 30" fill="none" xmlns="http://www.w3.org/2000/svg">
<g clip-path="url(#clip0_1190_41)">
<g clip-path="url(#clip1_1190_41)">
<rect x="10" y="10" width="20" height="20" rx="3" fill="white"/>
<path d="M10.9375 10C10.4183 10 10 10.4183 10 10.9375V29.0625C10 29.5817 10.4183 30 10.9375 30H29.0625C29.5817 30 30 29.5817 30 29.0625V10.9375C30 10.4183 29.5817 10 29.0625 10H10.9375ZM25.4067 18.125C25.9167 18.125 26.3683 18.1558 26.7625 18.2175C27.1343 18.2732 27.4991 18.3682 27.8508 18.5008V20.5492C27.682 20.4324 27.5026 20.3317 27.315 20.2483C27.1215 20.1613 26.9218 20.0889 26.7175 20.0317C26.3305 19.9238 25.9309 19.8678 25.5292 19.865C25.2792 19.865 25.0517 19.8883 24.8467 19.9367C24.664 19.9757 24.4887 20.0438 24.3275 20.1383C24.1858 20.225 24.0775 20.3292 24 20.45C23.9221 20.5718 23.8815 20.7137 23.8833 20.8583C23.8833 21.0217 23.9275 21.1692 24.0133 21.2992C24.1 21.4292 24.2233 21.5525 24.3825 21.6692C24.5417 21.7858 24.735 21.8992 24.9625 22.0108C25.19 22.1233 25.4475 22.2392 25.7342 22.3575C26.1258 22.5217 26.4775 22.6967 26.7892 22.8808C27.1008 23.0658 27.3683 23.275 27.5917 23.5083C27.815 23.7408 27.985 24.0067 28.1033 24.3058C28.2217 24.605 28.2817 24.9525 28.2817 25.35C28.2817 25.8975 28.1775 26.3583 27.9708 26.73C27.7689 27.0966 27.4791 27.4072 27.1275 27.6342C26.7485 27.8745 26.3284 28.0429 25.8883 28.1308C25.4167 28.2308 24.9192 28.2808 24.3967 28.2808C23.8824 28.2831 23.3691 28.2373 22.8633 28.1442C22.4258 28.0685 22.0014 27.9301 21.6033 27.7333V25.5417C22.3565 26.1826 23.3119 26.5368 24.3008 26.5417C24.5783 26.5417 24.8208 26.5167 25.0275 26.4667C25.235 26.4167 25.4075 26.3467 25.5467 26.2583C25.685 26.1683 25.7883 26.0633 25.8575 25.9417C25.9339 25.8 25.9687 25.6396 25.9578 25.479C25.9469 25.3184 25.8907 25.1642 25.7958 25.0342C25.672 24.8703 25.5206 24.7293 25.3483 24.6175C25.1347 24.4759 24.9098 24.3521 24.6758 24.2475C24.3985 24.1209 24.1188 23.9997 23.8367 23.8842C23.0717 23.565 22.5017 23.1742 22.1258 22.7133C21.7508 22.2525 21.5625 21.695 21.5625 21.0425C21.5625 20.5308 21.665 20.0917 21.87 19.7242C22.075 19.3567 22.3533 19.0542 22.7067 18.8167C23.0804 18.5701 23.4953 18.3926 23.9317 18.2925C24.415 18.1785 24.9101 18.1223 25.4067 18.125ZM12.8125 18.2817H20.7817V20.0867H17.9217V28.125H15.6575V20.0867H12.8125V18.2817Z" fill="#3178C6"/>
</g>
<g clip-path="url(#clip2_1190_41)">
<rect width="20" height="20" rx="3" fill="black"/>
<path d="M0 0H20V20H0V0ZM18.3617 15.23C18.2158 14.3175 17.6217 13.5508 15.8592 12.8358C15.2458 12.5483 14.5642 12.3483 14.3617 11.8858C14.2858 11.6108 14.2742 11.4608 14.3233 11.2983C14.4483 10.76 15.0858 10.5983 15.5858 10.7483C15.9108 10.8483 16.2108 11.0983 16.3992 11.4983C17.2608 10.935 17.2608 10.935 17.8617 10.5608C17.6367 10.2108 17.525 10.06 17.3733 9.91083C16.8483 9.32333 16.1492 9.02333 15.0117 9.04917L14.4242 9.12333C13.8608 9.26083 13.3242 9.56083 12.9992 9.96083C12.0492 11.0367 12.3233 12.9117 13.4733 13.6867C14.6108 14.5367 16.2742 14.7233 16.4867 15.5242C16.6867 16.4992 15.7617 16.8117 14.8483 16.6992C14.1725 16.5492 13.7983 16.2108 13.3858 15.5858L11.8608 16.4617C12.0358 16.8617 12.2358 17.0358 12.5358 17.3858C13.9858 18.8492 17.6108 18.7742 18.2617 16.5492C18.2858 16.4742 18.4617 15.9617 18.3233 15.1742L18.3617 15.23ZM10.8758 9.1925H9.0025C9.0025 10.8075 8.995 12.4125 8.995 14.03C8.995 15.0567 9.0475 15.9992 8.88 16.2892C8.605 16.8633 7.89667 16.79 7.575 16.6892C7.245 16.5258 7.0775 16.3008 6.88333 15.9767C6.83083 15.8892 6.79167 15.8133 6.7775 15.8133L5.25667 16.7508C5.51083 17.2758 5.88167 17.7275 6.36 18.015C7.0725 18.44 8.03 18.5775 9.0325 18.3525C9.685 18.1642 10.2475 17.7767 10.5417 17.1767C10.9667 16.4017 10.8767 15.4517 10.8725 14.3883C10.8825 12.6767 10.8725 10.9642 10.8725 9.23917L10.8758 9.1925Z" fill="#F7DF1E"/>
</g>
</g>
<defs>
<clipPath id="clip0_1190_41">
<rect width="30" height="30" fill="white"/>
</clipPath>
<clipPath id="clip1_1190_41">
<rect x="10" y="10" width="20" height="20" rx="3" fill="white"/>
</clipPath>
<clipPath id="clip2_1190_41">
<rect width="20" height="20" rx="3" fill="white"/>
</clipPath>
</defs>
</svg>
