<svg width="30" height="30" viewBox="0 0 30 30" fill="none" xmlns="http://www.w3.org/2000/svg">
<rect width="30" height="30" rx="3" fill="#FFF7E2"/>
<g clip-path="url(#clip0_1190_89)">
<path d="M15.4615 4C15.3194 4 15.1727 4.00733 15.0215 4.01925C11.1476 4.3245 12.1752 8.42567 12.1156 9.79242C12.046 10.7934 11.8406 11.5827 11.1531 12.5607C10.3419 13.5242 9.20339 15.0816 8.66348 16.705C8.40864 17.4677 8.28764 18.2487 8.40039 18.9866C8.35858 19.0204 8.32425 19.0625 8.29956 19.1103C8.06123 19.356 7.88706 19.6603 7.69181 19.8794C7.50939 20.0618 7.24723 20.1242 6.96123 20.2461C6.67431 20.3707 6.35806 20.4927 6.16923 20.8694C6.08673 21.0427 6.04456 21.2306 6.04823 21.4212C6.04823 21.6037 6.07298 21.7879 6.09864 21.9126C6.15181 22.2783 6.20498 22.5799 6.13531 22.8017C5.90706 23.4251 5.87864 23.8513 6.03814 24.1621C6.19764 24.4682 6.52856 24.5929 6.89981 24.713C7.64231 24.8963 8.65064 24.8367 9.44264 25.263C10.2915 25.6902 11.1531 25.8772 11.8406 25.6938C12.3228 25.5875 12.7298 25.2685 12.948 24.8267C13.4861 24.8239 14.0755 24.5801 15.0196 24.5205C15.6604 24.4673 16.4625 24.7652 17.3819 24.7038C17.4048 24.8267 17.4396 24.8853 17.4864 25.0091L17.4891 25.0118C17.8476 25.725 18.5094 26.0495 19.2161 25.9936C19.9229 25.9386 20.6755 25.5022 21.2851 24.7964C21.8635 24.0952 22.8278 23.8027 23.4649 23.4187C23.7839 23.2362 24.0415 22.9887 24.0598 22.6367C24.0809 22.2701 23.8765 21.8933 23.4053 21.3754V21.2865L23.4026 21.2837C23.2467 21.1004 23.1734 20.7933 23.0927 20.4349C23.0148 20.0673 22.9259 19.7144 22.6417 19.4761H22.639C22.5849 19.4266 22.5262 19.4147 22.4666 19.3523C22.4154 19.3165 22.3549 19.2962 22.2925 19.2937C22.6876 18.1222 22.5345 16.9562 22.1339 15.9075C21.6453 14.615 20.791 13.4893 20.1401 12.7147C19.4105 11.7935 18.6955 10.9208 18.7101 9.62742C18.734 7.65475 18.9265 4.0055 15.4615 4ZM15.9464 7.12125H15.9583C16.1536 7.12125 16.3213 7.17808 16.4936 7.30275C16.6678 7.4265 16.7961 7.60708 16.8951 7.79133C16.9914 8.02875 17.04 8.21208 17.0473 8.455C17.0473 8.43667 17.0528 8.41833 17.0528 8.4V8.49625C17.0508 8.49001 17.0496 8.48354 17.0491 8.477L17.0455 8.455C17.0436 8.67777 16.9969 8.89789 16.908 9.10217C16.8652 9.2171 16.7986 9.32173 16.7127 9.40925C16.6868 9.39458 16.6598 9.38172 16.6321 9.37075C16.5367 9.3295 16.4506 9.31208 16.3717 9.24883C16.3064 9.22281 16.2389 9.20257 16.1701 9.18833C16.2159 9.13333 16.3039 9.06642 16.3378 9.00683C16.3864 8.8895 16.413 8.76483 16.4185 8.63833V8.62C16.4205 8.49551 16.4016 8.37155 16.3626 8.25333C16.3213 8.1305 16.27 8.07 16.1948 7.94808C16.1178 7.88758 16.0417 7.82708 15.9501 7.82708H15.9354C15.8501 7.82708 15.7741 7.85458 15.6952 7.94808C15.6082 8.03298 15.5436 8.13819 15.5073 8.25425C15.4586 8.37072 15.4307 8.49482 15.4248 8.62092V8.63833C15.4266 8.71992 15.4321 8.80242 15.4431 8.88308C15.2662 8.82167 15.0416 8.75933 14.8867 8.69792C14.8775 8.6372 14.872 8.57597 14.8702 8.51458V8.49625C14.863 8.25427 14.91 8.01374 15.0077 7.79225C15.0829 7.59058 15.2204 7.42008 15.4019 7.30367C15.5586 7.1849 15.7498 7.12145 15.9464 7.12125ZM13.2312 7.17533H13.2642C13.3944 7.17533 13.5117 7.21933 13.63 7.29908C13.7638 7.41733 13.872 7.56308 13.9453 7.72533C14.0278 7.90775 14.0736 8.092 14.0856 8.33675V8.34042C14.092 8.46325 14.0911 8.52375 14.0837 8.58425V8.65758C14.0562 8.664 14.0324 8.67408 14.0076 8.67958C13.8683 8.73 13.7565 8.80333 13.6474 8.86292C13.6584 8.78042 13.6593 8.69792 13.6501 8.61817V8.60442C13.6391 8.4825 13.6135 8.42108 13.575 8.29917C13.5464 8.20574 13.4939 8.12138 13.4228 8.05442C13.4002 8.03387 13.3737 8.01809 13.3449 8.00801C13.3161 7.99793 13.2855 7.99376 13.2551 7.99575H13.2358C13.1707 8.00125 13.1166 8.03242 13.0653 8.11675C13.0068 8.18772 12.9688 8.27329 12.9553 8.36425C12.9305 8.46306 12.9234 8.56546 12.9342 8.66675V8.6805C12.9452 8.80425 12.9681 8.86383 13.0076 8.98667C13.0497 9.1095 13.0974 9.17 13.1597 9.23233C13.1689 9.24058 13.1781 9.24883 13.1909 9.25433C13.1267 9.30658 13.0836 9.3185 13.0296 9.379C12.9953 9.40933 12.954 9.43074 12.9095 9.44133C12.8142 9.32659 12.7298 9.20323 12.6574 9.07283C12.5707 8.8802 12.5225 8.67252 12.5153 8.46142C12.5001 8.25449 12.525 8.04657 12.5886 7.84908C12.6391 7.66897 12.7276 7.50176 12.8481 7.35867C12.9654 7.23675 13.0864 7.17533 13.2312 7.17533ZM14.4871 8.73917C14.7914 8.73917 15.159 8.79875 15.6017 9.10492C15.8703 9.28825 16.0811 9.3515 16.5661 9.53392H16.5688C16.8026 9.65858 16.9401 9.77775 17.007 9.89967V9.77958C17.0399 9.84624 17.0582 9.91913 17.0607 9.99342C17.0633 10.0677 17.0499 10.1417 17.0216 10.2104C16.9089 10.4946 16.5486 10.7998 16.0472 10.9822V10.9841C15.8016 11.1078 15.588 11.2893 15.3368 11.4103C15.0838 11.5341 14.7978 11.678 14.4091 11.6551C14.2695 11.6623 14.1299 11.6414 13.9985 11.5937C13.8969 11.5384 13.7984 11.4778 13.7033 11.4122C13.5246 11.2884 13.3706 11.1078 13.1423 10.9859V10.9813H13.1377C12.7711 10.7558 12.5731 10.512 12.5089 10.3305C12.4447 10.0848 12.5043 9.89967 12.6858 9.7805C12.8911 9.65675 13.0341 9.53208 13.1286 9.4725C13.2239 9.40467 13.2596 9.379 13.2899 9.35242H13.2917V9.34967C13.4466 9.1645 13.6914 8.91883 14.0608 8.79875C14.1882 8.76575 14.3303 8.73917 14.488 8.73917H14.4871ZM17.0537 10.7027C17.3819 12.0016 18.1501 13.8881 18.6441 14.8029C18.9063 15.2924 19.4279 16.3237 19.6543 17.5749C19.7973 17.5703 19.9568 17.5914 20.1246 17.6336C20.7167 16.1018 19.6241 14.4555 19.1263 13.9981C18.9246 13.8147 18.9136 13.691 19.0136 13.691C19.5544 14.1805 20.2648 15.132 20.5224 16.2182C20.6416 16.7087 20.6691 17.2302 20.5416 17.7491C20.6031 17.7747 20.6654 17.8041 20.7296 17.8105C21.6756 18.3 22.0248 18.6703 21.8571 19.2194V19.18C21.8021 19.1772 21.7471 19.18 21.6921 19.18H21.6774C21.8158 18.7519 21.5106 18.4237 20.7011 18.058C19.8624 17.6913 19.1923 17.75 19.0786 18.4842C19.0713 18.5237 19.0667 18.5447 19.0621 18.608C18.9998 18.6291 18.9347 18.6566 18.8706 18.6667C18.4764 18.9123 18.2637 19.2799 18.1436 19.7547C18.0245 20.2433 17.9878 20.8144 17.9557 21.468V21.4707C17.9374 21.7769 17.7999 22.2389 17.6633 22.7082C16.2883 23.6909 14.3816 24.1181 12.761 23.0144C12.6593 22.8366 12.5355 22.6725 12.3925 22.5258C12.3242 22.4121 12.2392 22.3092 12.1404 22.2206C12.3072 22.2206 12.4502 22.1931 12.5666 22.1592C12.6985 22.098 12.8016 21.9883 12.8545 21.853C12.9535 21.6082 12.8545 21.2141 12.5382 20.7869C12.222 20.3588 11.6848 19.8748 10.8992 19.3927C10.3217 19.026 9.99539 18.5952 9.84506 18.113C9.69381 17.6235 9.71398 17.1184 9.83131 16.6051C10.0559 15.6242 10.6316 14.6709 10.9991 14.0723C11.0972 14.0127 11.0331 14.1961 10.6251 14.9652C10.2621 15.6536 9.58014 17.2541 10.5133 18.498C10.5486 17.5904 10.7496 16.6969 11.1064 15.8617C11.6234 14.6902 12.7041 12.6497 12.7894 11.0327C12.8334 11.0657 12.9883 11.1564 13.0543 11.2178C13.2541 11.3397 13.4026 11.5231 13.5951 11.6441C13.7876 11.8283 14.0324 11.9512 14.3981 11.9512C14.4339 11.9539 14.4669 11.9567 14.499 11.9567C14.8766 11.9567 15.1681 11.8338 15.4129 11.711C15.6787 11.5882 15.8896 11.4048 16.0912 11.3443H16.0958C16.5239 11.2206 16.8612 10.9758 17.0528 10.7027H17.0537ZM19.0566 18.9142C19.0906 19.4642 19.3711 20.0554 19.8651 20.1764C20.4041 20.2992 21.1796 19.8712 21.5069 19.4752L21.7003 19.466C21.9891 19.4596 22.2292 19.4752 22.4767 19.7117L22.4795 19.7144C22.6701 19.8968 22.7591 20.2002 22.8379 20.5174C22.9158 20.8841 22.9791 21.2324 23.2128 21.4946C23.6583 21.9777 23.8041 22.3251 23.7958 22.5396L23.7986 22.5332V22.5497L23.7958 22.5396C23.7821 22.7797 23.6262 22.9017 23.3393 23.0841C22.7618 23.4517 21.7388 23.7367 21.0871 24.5232C20.5206 25.1988 19.8312 25.5682 19.2207 25.615C18.6121 25.6636 18.0868 25.4317 17.7779 24.7918L17.7733 24.7891C17.5808 24.4224 17.6633 23.8495 17.8246 23.2399C17.986 22.6276 18.217 22.0079 18.2491 21.501C18.283 20.8465 18.3187 20.2772 18.4278 19.8382C18.5378 19.4119 18.7101 19.1076 19.0154 18.9362L19.0566 18.916V18.9142ZM9.14381 18.9591H9.15298C9.20156 18.9591 9.24923 18.9637 9.29689 18.9719C9.64156 19.0223 9.94406 19.2772 10.2346 19.6612L11.0688 21.1866L11.0716 21.1893C11.2943 21.6779 11.7627 22.1647 12.1615 22.6899C12.5593 23.2381 12.8673 23.7267 12.8297 24.1291V24.1346C12.7775 24.8166 12.3897 25.1869 11.7985 25.3207C11.2072 25.4445 10.4051 25.3226 9.60306 24.8954C8.71573 24.4041 7.66156 24.4655 6.98414 24.3436C6.64589 24.2831 6.42498 24.1602 6.32139 23.9769C6.22056 23.7936 6.21781 23.4251 6.43414 22.8494V22.8457L6.43598 22.843C6.54323 22.5368 6.46348 22.1537 6.41123 21.8182C6.36081 21.4506 6.33514 21.1673 6.45064 20.9565C6.59731 20.6503 6.81364 20.5898 7.08314 20.4679C7.35264 20.3442 7.66981 20.2828 7.92189 20.0371H7.92373V20.0352C8.15839 19.7896 8.33164 19.4843 8.53606 19.2671C8.71023 19.0828 8.88439 18.9591 9.14381 18.9591ZM15.7062 10.6412C15.3075 10.8255 14.84 11.1317 14.3422 11.1317C13.8454 11.1317 13.4531 10.8869 13.1689 10.7045C13.0277 10.5817 12.9122 10.4588 12.827 10.3974C12.6766 10.2746 12.695 10.0922 12.7591 10.0922C12.8591 10.1068 12.8774 10.215 12.9416 10.2755C13.0296 10.336 13.1386 10.4588 13.2716 10.5807C13.5392 10.7641 13.8949 11.0088 14.3413 11.0088C14.7859 11.0088 15.3066 10.7641 15.6228 10.5817C15.8016 10.4579 16.0307 10.2755 16.2168 10.1536C16.3598 10.0289 16.3534 9.90883 16.4726 9.90883C16.5899 9.9235 16.5037 10.0317 16.3378 10.2132C16.1345 10.3669 15.9234 10.5101 15.7053 10.6422L15.7062 10.6412ZM14.7144 9.19017V9.17C14.7089 9.15167 14.7263 9.1315 14.741 9.12417C14.8088 9.08475 14.906 9.09942 14.9793 9.12783C15.0371 9.12783 15.126 9.18925 15.1168 9.25158C15.1113 9.2965 15.0389 9.31208 14.9931 9.31208C14.9426 9.31208 14.9087 9.27267 14.8638 9.24975C14.8161 9.23325 14.73 9.24242 14.7144 9.19017ZM14.2093 9.19017C14.191 9.24333 14.1057 9.23508 14.0571 9.25067C14.0141 9.27358 13.9783 9.313 13.9288 9.313C13.883 9.313 13.8096 9.29467 13.8041 9.25067C13.795 9.19017 13.8848 9.12875 13.9416 9.12875C14.015 9.10033 14.1103 9.08567 14.1791 9.12417C14.1965 9.13242 14.2121 9.15167 14.2066 9.17V9.18833H14.2093V9.19017Z" fill="#422B0E"/>
</g>
<defs>
<clipPath id="clip0_1190_89">
<rect width="22" height="22" fill="white" transform="translate(4 4)"/>
</clipPath>
</defs>
</svg>
