<svg width="30" height="30" viewBox="0 0 30 30" fill="none" xmlns="http://www.w3.org/2000/svg">
<rect width="30" height="30" rx="3" fill="#E4E4F3"/>
<g clip-path="url(#clip0_1190_86)">
<path d="M4.34925 13.5123L4.09992 13.4783C4.05592 13.7937 4.02475 14.1154 4.00733 14.4326L4.25942 14.4473C4.27592 14.1356 4.30617 13.8221 4.34925 13.5123ZM7.79225 7.01492L7.62358 6.827C7.38708 7.03967 7.157 7.267 6.93975 7.49983L7.12492 7.67217C7.33667 7.44483 7.56125 7.223 7.79225 7.01492ZM9.28917 5.88742L9.15533 5.672C8.884 5.8425 8.61817 6.02492 8.36425 6.2165L8.51642 6.41725C8.76392 6.23117 9.02425 6.0515 9.28917 5.88742ZM5.67292 20.8382C5.8425 21.1105 6.02492 21.3754 6.2165 21.6293L6.41817 21.479C6.23025 21.2306 6.05242 20.9703 5.8865 20.7053L5.67292 20.8382ZM5.034 19.0352L4.80025 19.1305C4.9185 19.422 5.05142 19.7126 5.19533 19.9949L5.19992 20.0041L5.4245 19.8895L5.41992 19.8803C5.27967 19.6044 5.1495 19.3203 5.034 19.0352ZM4.27408 12.5333L4.52067 12.591C4.59033 12.2867 4.67467 11.9823 4.77 11.6872L4.53075 11.6074C4.43175 11.9117 4.34558 12.2234 4.27408 12.5333ZM4.25208 15.385L4 15.3942C4.011 15.7132 4.03667 16.0349 4.07608 16.3502L4.32633 16.32C4.28783 16.012 4.26308 15.6967 4.25208 15.385ZM4.23558 17.2972C4.3025 17.6088 4.38408 17.9223 4.47758 18.2267L4.71867 18.1533C4.627 17.8545 4.54725 17.5502 4.48217 17.2458L4.23558 17.2972ZM14.6095 4.25208L14.6003 4C14.2813 4.011 13.9596 4.03575 13.6433 4.07517L13.6745 4.32542C13.9843 4.28783 14.2978 4.26308 14.6095 4.25208ZM25.2868 11.8522C25.3785 12.151 25.4573 12.4572 25.5215 12.7615L25.769 12.7074C25.703 12.3957 25.6223 12.0822 25.5288 11.7779L25.2868 11.8522ZM20.1535 5.27325C19.8703 5.12292 19.5787 4.98542 19.2854 4.86167L19.1873 5.09267C19.4752 5.21458 19.7602 5.35025 20.0362 5.49508L20.1535 5.27325ZM18.3862 4.52433C18.0818 4.42808 17.772 4.34192 17.4603 4.27042L17.4026 4.51608C17.7069 4.58575 18.0113 4.67008 18.3083 4.76633L18.3862 4.52433ZM10.1187 5.41625C10.3919 5.27875 10.6743 5.1495 10.9584 5.03308L10.8631 4.80025C10.5725 4.91667 10.2837 5.04958 10.0042 5.19258L9.99042 5.19992L10.105 5.42358L10.1187 5.41625ZM25.7507 14.6223L26.0028 14.6132C25.9919 14.2929 25.9668 13.9733 25.9276 13.6553L25.6773 13.6855C25.7149 13.9953 25.7397 14.3107 25.7507 14.6223ZM16.5171 4.09625C16.1999 4.05317 15.8791 4.02292 15.561 4.00642L15.5482 4.25667C15.8589 4.27317 16.1743 4.30342 16.4823 4.3465L16.5171 4.09625ZM12.7496 4.48308L12.6964 4.23558C12.3848 4.30158 12.0722 4.38225 11.7669 4.47758L11.8412 4.71775C12.1391 4.627 12.4453 4.54817 12.7496 4.48308ZM5.76183 9.01325L5.97358 9.15075C6.14317 8.8895 6.32558 8.63192 6.51625 8.38625L6.31733 8.23042C6.12208 8.48342 5.93508 8.7465 5.76183 9.01325ZM4.86533 10.7082L5.09725 10.8063C5.21825 10.5193 5.35392 10.2333 5.49967 9.95925L5.27692 9.84192C5.1275 10.1233 4.98908 10.4148 4.86533 10.7082ZM20.7053 24.1144L20.8382 24.3289C21.1087 24.1584 21.3754 23.976 21.6293 23.7844L21.479 23.5837C21.2297 23.7707 20.9684 23.9503 20.7053 24.1144ZM23.4782 21.6174L23.6772 21.7733C23.8743 21.523 24.0603 21.259 24.2336 20.9904L24.0227 20.8547C23.8522 21.116 23.6698 21.3718 23.4782 21.6174ZM22.2013 22.9888L22.37 23.1748C22.6065 22.964 22.8375 22.7358 23.0538 22.5038L22.8696 22.3315C22.6587 22.5588 22.4323 22.7788 22.2013 22.9888ZM24.4967 20.0453L24.7203 20.1636C24.8688 19.8822 25.0082 19.5907 25.1319 19.2973L24.8991 19.1992C24.7778 19.4872 24.6435 19.7695 24.4967 20.0453ZM25.6498 16.4933L25.9001 16.529C25.945 16.2118 25.9753 15.8919 25.9936 15.5729L25.7415 15.5601C25.725 15.8699 25.6948 16.1853 25.6498 16.4933ZM25.2273 18.3193L25.4693 18.3981C25.5673 18.0938 25.6535 17.7839 25.725 17.4722L25.4793 17.4145C25.4087 17.7198 25.3244 18.0241 25.2273 18.3193ZM24.5828 10.116C24.724 10.3938 24.8551 10.6816 24.9715 10.9703L25.2062 10.875C25.0861 10.5798 24.9523 10.2856 24.8065 10.0014L24.5828 10.116ZM11.6056 25.4665C11.909 25.5646 12.2198 25.6508 12.5305 25.7223L12.5873 25.4766C12.2839 25.4069 11.9796 25.3226 11.6835 25.2263L11.6056 25.4665ZM13.4747 25.8983C13.7909 25.9432 14.1127 25.9734 14.4308 25.9917L14.4436 25.7397C14.1328 25.7232 13.8184 25.6929 13.5095 25.6498L13.4747 25.8983ZM19.8831 24.5782C19.6053 24.7194 19.3212 24.8505 19.0342 24.9669L19.1296 25.2016C19.4211 25.0815 19.7153 24.9495 19.9977 24.8038L20.0013 24.8019L19.8886 24.5764L19.8831 24.5782ZM8.2295 23.6781C8.48067 23.8733 8.74467 24.0613 9.01233 24.2327L9.14892 24.0218C8.88767 23.8532 8.631 23.6689 8.38533 23.4792L8.2295 23.6781ZM15.3832 25.7479L15.3914 26C15.7104 25.9872 16.0322 25.9624 16.3493 25.923L16.3173 25.6746C16.0093 25.7122 15.6939 25.7369 15.3832 25.7479ZM9.84008 24.7203C10.1215 24.8688 10.413 25.0082 10.7073 25.1319L10.8053 24.8991C10.5184 24.7772 10.2333 24.6433 9.95833 24.4967L9.84008 24.7203ZM6.827 22.3709C7.04058 22.6074 7.267 22.8384 7.49983 23.0548L7.67217 22.8705C7.44392 22.6597 7.223 22.4333 7.01492 22.2023L6.827 22.3709ZM17.2422 25.5188L17.2963 25.7663C17.6079 25.6984 17.9196 25.6178 18.2258 25.5224L18.1506 25.2822C17.8527 25.373 17.5465 25.4518 17.2422 25.5188ZM23.4159 4.11825C22.7622 4.11825 22.1352 4.37795 21.673 4.84021C21.2107 5.30247 20.951 5.92943 20.951 6.58317C20.951 7.2369 21.2107 7.86386 21.673 8.32613C22.1352 8.78839 22.7622 9.04808 23.4159 9.04808C24.0697 9.04808 24.6966 8.78839 25.1589 8.32613C25.6211 7.86386 25.8808 7.2369 25.8808 6.58317C25.8808 5.92943 25.6211 5.30247 25.1589 4.84021C24.6966 4.37795 24.0697 4.11825 23.4159 4.11825ZM18.0479 18.1597C18.0479 18.5915 18.3358 18.7648 18.8289 18.7648C19.4431 18.7648 20.0178 18.4017 20.0178 17.8334V17.2422C19.807 17.3403 19.6704 17.3714 19.0031 17.4622C18.3293 17.5621 18.0479 17.7427 18.0479 18.1597ZM15.0009 6.58317C10.3534 6.58317 6.58592 10.3498 6.58592 14.9982C6.58592 19.6438 10.3534 23.4132 15.0009 23.4132C19.6484 23.4132 23.4159 19.6448 23.4159 14.9982C23.4159 10.3507 19.6484 6.58317 15.0009 6.58317ZM12.7212 19.2057H9.291V13.6846H9.99592V18.5851H12.7221V19.2057H12.7212ZM16.507 19.2057H15.9396V18.5915C15.5683 19.114 15.1962 19.3184 14.6141 19.3184C13.8413 19.3184 13.3491 18.894 13.3491 18.2349V15.2365H13.9779V17.9865C13.9779 18.4632 14.296 18.7657 14.7965 18.7657C15.4556 18.7657 15.8791 18.2358 15.8791 17.4264V15.2365H16.5079V19.2057H16.507ZM16.0212 11.5121C16.0212 10.1517 17.1258 9.04717 18.4861 9.04717C19.8464 9.04717 20.9501 10.1517 20.9501 11.5121C20.9501 12.8724 19.8473 13.9761 18.4861 13.9761C17.1248 13.9761 16.0212 12.8733 16.0212 11.5121ZM21.1243 18.7134V19.1901C20.9198 19.2442 20.8217 19.2579 20.6925 19.2579C20.3808 19.2579 20.1086 19.0398 20.0407 18.7354C19.6915 19.1076 19.1993 19.3193 18.6923 19.3193C17.8884 19.3193 17.3888 18.8949 17.3888 18.1753C17.3888 17.6923 17.6235 17.3357 18.0855 17.1459C18.3293 17.0478 18.465 17.0167 19.3587 16.9039C19.8583 16.8434 20.0178 16.7288 20.0178 16.4639V16.2971C20.0178 15.9194 19.6988 15.7058 19.1314 15.7058C18.5402 15.7058 18.2542 15.9258 18.2001 16.4117H17.5648C17.6024 15.495 18.1937 15.1247 19.1543 15.1247C20.1315 15.1247 20.6458 15.5023 20.6458 16.2082V18.4192C20.6458 18.6162 20.7677 18.729 20.9877 18.729C21.0252 18.7272 21.0555 18.7272 21.1243 18.7134Z" fill="#2C2D72"/>
</g>
<defs>
<clipPath id="clip0_1190_86">
<rect width="22" height="22" fill="white" transform="translate(4 4)"/>
</clipPath>
</defs>
</svg>
