<svg width="20" height="21" viewBox="0 0 20 21" fill="none" xmlns="http://www.w3.org/2000/svg">
<g clip-path="url(#clip0_1180_12)">
<path d="M16.9308 4.14164C15.6342 3.54645 14.2658 3.12201 12.8599 2.87898C12.8471 2.87659 12.834 2.8783 12.8222 2.88385C12.8105 2.8894 12.8008 2.89851 12.7945 2.90989C12.6187 3.22264 12.4239 3.63056 12.2876 3.95114C10.7503 3.72098 9.22092 3.72098 7.71525 3.95114C7.57892 3.62339 7.37709 3.22264 7.2005 2.90989C7.19396 2.89877 7.18422 2.88988 7.17255 2.88438C7.16088 2.87888 7.14783 2.87703 7.13509 2.87906C5.72907 3.12153 4.36058 3.54593 3.06409 4.14156C3.053 4.1463 3.04365 4.15437 3.03734 4.16464C0.444503 8.03831 -0.26583 11.8167 0.08267 15.5483C0.0836554 15.5574 0.0864643 15.5663 0.0909303 15.5743C0.0953964 15.5824 0.101429 15.5894 0.10867 15.5951C1.81934 16.8514 3.47642 17.6141 5.10275 18.1196C5.1154 18.1233 5.1289 18.1232 5.14144 18.119C5.15398 18.1149 5.16496 18.1071 5.17292 18.0966C5.55759 17.5712 5.9005 17.0172 6.19459 16.4347C6.19863 16.4268 6.20094 16.418 6.20136 16.4091C6.20178 16.4001 6.2003 16.3912 6.19703 16.3829C6.19375 16.3746 6.18875 16.3671 6.18236 16.3608C6.17596 16.3546 6.16831 16.3497 6.15992 16.3466C5.61592 16.1403 5.098 15.8887 4.59975 15.6031C4.59067 15.5977 4.58304 15.5902 4.57753 15.5812C4.57203 15.5723 4.56882 15.5621 4.56819 15.5515C4.56757 15.541 4.56954 15.5305 4.57394 15.5209C4.57834 15.5114 4.58503 15.503 4.59342 15.4966C4.69825 15.4181 4.80317 15.3364 4.90325 15.2538C4.91215 15.2465 4.92292 15.2418 4.93434 15.2402C4.94577 15.2387 4.9574 15.2404 4.96792 15.2451C8.24109 16.7395 11.7846 16.7395 15.0191 15.2451C15.0296 15.24 15.0414 15.2381 15.0529 15.2395C15.0645 15.2409 15.0755 15.2456 15.0845 15.253C15.1847 15.3355 15.2895 15.4181 15.3952 15.4966C15.4036 15.503 15.4103 15.5112 15.4148 15.5208C15.4192 15.5303 15.4213 15.5408 15.4207 15.5513C15.4202 15.5618 15.4171 15.572 15.4117 15.581C15.4062 15.59 15.3987 15.5976 15.3897 15.603C14.8912 15.8941 14.3691 16.1426 13.8288 16.3458C13.8204 16.349 13.8128 16.354 13.8065 16.3603C13.8001 16.3667 13.7952 16.3743 13.792 16.3827C13.7888 16.3911 13.7874 16.4001 13.7879 16.409C13.7884 16.418 13.7908 16.4267 13.7949 16.4347C14.0953 17.0164 14.4382 17.5704 14.8158 18.0957C14.8235 18.1066 14.8344 18.1147 14.847 18.119C14.8596 18.1233 14.8732 18.1235 14.8859 18.1196C16.5201 17.614 18.1772 16.8513 19.8878 15.5951C19.8952 15.5897 19.9013 15.5828 19.9058 15.5749C19.9103 15.5669 19.9131 15.5581 19.9139 15.5491C20.3309 11.2349 19.2154 7.48748 16.9568 4.16539C16.9513 4.1546 16.9421 4.14623 16.9308 4.14164ZM6.68334 13.2761C5.69792 13.2761 4.88592 12.3714 4.88592 11.2603C4.88592 10.1493 5.68217 9.24456 6.68342 9.24456C7.69242 9.24456 8.4965 10.1572 8.48075 11.2604C8.48075 12.3714 7.6845 13.2761 6.68334 13.2761ZM13.329 13.2761C12.3436 13.2761 11.5316 12.3714 11.5316 11.2603C11.5316 10.1493 12.3278 9.24456 13.329 9.24456C14.338 9.24456 15.1421 10.1572 15.1263 11.2604C15.1263 12.3714 14.338 13.2761 13.329 13.2761Z" fill="white"/>
</g>
<defs>
<clipPath id="clip0_1180_12">
<rect width="20" height="20" fill="white" transform="translate(0 0.5)"/>
</clipPath>
</defs>
</svg>
