<svg width="20" height="21" viewBox="0 0 20 21" fill="none" xmlns="http://www.w3.org/2000/svg">
<g clip-path="url(#clip0_1180_9)">
<path d="M10 0.74707C4.475 0.74707 0 5.22457 0 10.7471C0 15.1662 2.865 18.9137 6.8375 20.2346C7.3375 20.3287 7.52083 20.0196 7.52083 19.7537C7.52083 19.5162 7.5125 18.8871 7.50833 18.0537C4.72667 18.6571 4.14 16.7121 4.14 16.7121C3.685 15.5579 3.0275 15.2496 3.0275 15.2496C2.12167 14.6296 3.0975 14.6421 3.0975 14.6421C4.10167 14.7121 4.62917 15.6721 4.62917 15.6721C5.52083 17.2012 6.97 16.7596 7.54167 16.5037C7.63167 15.8571 7.88917 15.4162 8.175 15.1662C5.95417 14.9162 3.62 14.0562 3.62 10.2246C3.62 9.1329 4.0075 8.24124 4.64917 7.54124C4.53667 7.28874 4.19917 6.27207 4.73667 4.89457C4.73667 4.89457 5.57417 4.62624 7.48667 5.91957C8.28667 5.69707 9.13667 5.58707 9.98667 5.58207C10.8367 5.58707 11.6867 5.69707 12.4867 5.91957C14.3867 4.62624 15.2242 4.89457 15.2242 4.89457C15.7617 6.27207 15.4242 7.28874 15.3242 7.54124C15.9617 8.24124 16.3492 9.1329 16.3492 10.2246C16.3492 14.0662 14.0117 14.9121 11.7867 15.1579C12.1367 15.4579 12.4617 16.0712 12.4617 17.0079C12.4617 18.3462 12.4492 19.4212 12.4492 19.7462C12.4492 20.0087 12.6242 20.3212 13.1367 20.2212C17.1375 18.9096 20 15.1596 20 10.7471C20 5.22457 15.5225 0.74707 10 0.74707Z" fill="white"/>
</g>
<defs>
<clipPath id="clip0_1180_9">
<rect width="20" height="20" fill="white" transform="translate(0 0.5)"/>
</clipPath>
</defs>
</svg>
