<svg width="20" height="20" viewBox="0 0 20 20" fill="none" xmlns="http://www.w3.org/2000/svg">
<mask id="mask0_1180_25" style="mask-type:alpha" maskUnits="userSpaceOnUse" x="0" y="0" width="20" height="20">
<rect width="20" height="20" fill="#D9D9D9"/>
</mask>
<g mask="url(#mask0_1180_25)">
<path d="M3.39193 16.8362C2.86716 16.8362 2.42 16.6514 2.05043 16.2818C1.68087 15.9123 1.49609 15.4651 1.49609 14.9403V5.05992C1.49609 4.53515 1.68089 4.08799 2.05047 3.71842C2.42002 3.34885 2.86718 3.16406 3.39195 3.16406H16.6057C17.1305 3.16406 17.5776 3.34885 17.9472 3.71842C18.3168 4.08799 18.5016 4.53515 18.5016 5.05992V14.9403C18.5016 15.4651 18.3168 15.9123 17.9472 16.2818C17.5776 16.6514 17.1305 16.8362 16.6057 16.8362H3.39193ZM16.6057 6.88102L10.5011 10.732C10.4223 10.7803 10.3396 10.8166 10.2529 10.8407C10.1662 10.8649 10.0815 10.8769 9.9988 10.8769C9.91607 10.8769 9.83137 10.8649 9.74472 10.8407C9.65805 10.8166 9.57532 10.7803 9.49653 10.732L3.39193 6.88102V14.9403H16.6057V6.88102ZM9.9988 9.22658L16.6057 5.05992H3.39193L9.9988 9.22658ZM3.39193 7.10927V5.77731V5.80046V5.05992V5.80131V5.78342V7.10927Z" fill="#A2A9AC"/>
</g>
</svg>
