<svg width="20" height="21" viewBox="0 0 20 21" fill="none" xmlns="http://www.w3.org/2000/svg">
<mask id="mask0_1180_5" style="mask-type:alpha" maskUnits="userSpaceOnUse" x="0" y="0" width="20" height="21">
<rect y="0.5" width="20" height="20" fill="#D9D9D9"/>
</mask>
<g mask="url(#mask0_1180_5)">
<path d="M3.39193 17.3362C2.86716 17.3362 2.42 17.1514 2.05043 16.7818C1.68087 16.4123 1.49609 15.9651 1.49609 15.4403V5.55992C1.49609 5.03515 1.68089 4.58799 2.05047 4.21842C2.42002 3.84885 2.86718 3.66406 3.39195 3.66406H16.6057C17.1305 3.66406 17.5776 3.84885 17.9472 4.21842C18.3168 4.58799 18.5016 5.03515 18.5016 5.55992V15.4403C18.5016 15.9651 18.3168 16.4123 17.9472 16.7818C17.5776 17.1514 17.1305 17.3362 16.6057 17.3362H3.39193ZM16.6057 7.38102L10.5011 11.232C10.4223 11.2803 10.3396 11.3166 10.2529 11.3407C10.1662 11.3649 10.0815 11.3769 9.9988 11.3769C9.91607 11.3769 9.83137 11.3649 9.74472 11.3407C9.65805 11.3166 9.57532 11.2803 9.49653 11.232L3.39193 7.38102V15.4403H16.6057V7.38102ZM9.9988 9.72658L16.6057 5.55992H3.39193L9.9988 9.72658ZM3.39193 7.60927V6.27731V6.30046V5.55992V6.30131V6.28342V7.60927Z" fill="#6D7679"/>
</g>
</svg>
