<svg width="20" height="20" viewBox="0 0 20 20" fill="none" xmlns="http://www.w3.org/2000/svg">
<path fill-rule="evenodd" clip-rule="evenodd" d="M18.1135 3.18681C17.9215 3.03081 17.6269 2.99748 17.4935 3.00014C16.8922 3.01081 15.9682 3.33214 11.5255 5.18014C9.96821 5.82681 6.85888 7.16681 2.19488 9.19881C1.43754 9.50014 1.04021 9.79481 1.00421 10.0828C0.943228 10.5695 1.55167 10.7612 2.38136 11.0226C2.49499 11.0584 2.61277 11.0955 2.73354 11.1348C3.55088 11.4001 4.64954 11.7108 5.22021 11.7215C5.73888 11.7348 6.31621 11.5215 6.95621 11.0815C11.3135 8.14148 13.5629 6.65348 13.7042 6.62148C13.8042 6.59881 13.9429 6.57081 14.0362 6.65348C14.1295 6.73614 14.1202 6.89348 14.1109 6.93614C14.05 7.19293 11.6635 9.41216 10.4232 10.5655C10.0342 10.9273 9.7579 11.1842 9.70154 11.2428C9.57662 11.3724 9.44931 11.495 9.3269 11.6129C8.56744 12.3443 7.99685 12.8938 9.35754 13.7895C10.0119 14.2211 10.5355 14.5777 11.0581 14.9338C11.6268 15.3212 12.1944 15.7079 12.9282 16.1895C13.1161 16.3125 13.2955 16.4403 13.4702 16.5648C14.1324 17.0368 14.7273 17.4607 15.4615 17.3921C15.8895 17.3535 16.3309 16.9521 16.5549 15.7521C17.0855 12.9188 18.1282 6.78014 18.3682 4.24948C18.3895 4.02814 18.3629 3.74414 18.3415 3.62014C18.3225 3.45224 18.2411 3.29761 18.1135 3.18681Z" fill="white"/>
</svg>
